<?xml version="1.0" ?><!DOCTYPE svg  PUBLIC '-//W3C//DTD SVG 1.1//EN'  'http://www.w3.org/Graphics/SVG/1.1/DTD/svg11.dtd'><svg id="Capa_1" style="enable-background: new 0 0 58 58" version="1.1" viewBox="0 0 58 58" xml:space="preserve" xmlns="http://www.w3.org/2000/svg" xmlns:xlink="http://www.w3.org/1999/xlink"><g><path d="M56,23.557L33.966,2.017c-2.751-2.69-7.181-2.69-9.932,0L2,23.557V58h54V23.557z" style="fill: #2a55c5"></path><path d="M36.707,20.293l-6.999-6.999c-0.092-0.093-0.203-0.166-0.326-0.217   c-0.244-0.101-0.519-0.101-0.764,0c-0.123,0.051-0.234,0.125-0.326,0.217l-6.999,6.999c-0.391,0.391-0.391,1.023,0,1.414   C21.488,21.902,21.744,22,22,22s0.512-0.098,0.707-0.293L28,16.414V33c0,0.553,0.447,1,1,1s1-0.447,1-1V16.414l5.293,5.293   C35.488,21.902,35.744,22,36,22s0.512-0.098,0.707-0.293C37.098,21.316,37.098,20.684,36.707,20.293z" style="fill: #fff"></path><path d="M56,58L33.446,40.533c-2.756-1.895-6.405-1.905-9.172-0.027C16.524,45.767,2,58,2,58H56z" style="fill: #86d7fb"></path><path d="M25.158,40H25L2,24v34c0,0,14.524-12.233,22.273-17.494C24.558,40.313,24.857,40.153,25.158,40z" style="fill: #31b6f3"></path><path d="M33,40h-0.473c0.313,0.16,0.623,0.33,0.918,0.533L56,58V24L33,40z" style="fill: #167cd8"></path></g><g></g><g></g><g></g><g></g><g></g><g></g><g></g><g></g><g></g><g></g><g></g><g></g><g></g><g></g><g></g></svg>