<svg width="177" height="177" viewBox="0 0 177 177" fill="none" xmlns="http://www.w3.org/2000/svg">
<g clip-path="url('#clip0_102_2')">
<path d="M24.0271 46.333C19.7071 62.458 21.9241 79.301 30.2711 93.759C41.4031 113.04 62.1631 125.018 84.4491 125.018C92.8601 125.018 101.194 123.289 108.923 119.988L141.43 176.291L154.42 168.791L121.912 112.486C133.086 104.133 141.102 92.369 144.768 78.684C149.088 62.559 146.871 45.716 138.524 31.258C127.393 11.978 106.633 0 84.3471 0C73.4351 0 62.647 2.899 53.1481 8.383C38.6901 16.73 28.3491 30.208 24.0271 46.333ZM84.3471 15C101.291 15 117.074 24.104 125.535 38.759C131.879 49.747 133.564 62.548 130.28 74.803C126.997 87.058 119.137 97.302 108.149 103.645C100.927 107.814 92.7331 110.018 84.4501 110.018C67.5061 110.018 51.7231 100.914 43.2621 86.259C36.9181 75.271 35.233 62.471 38.517 50.216C41.801 37.96 49.6601 27.717 60.6481 21.373C67.8701 17.204 76.0641 15 84.3471 15Z" fill="#808080"></path>
</g>
<defs>
<clipPath id="clip0_102_2">
<rect width="176.292" height="176.292" fill="white"></rect>
</clipPath>
</defs>
</svg>
