<svg width="1707" height="1584" viewBox="0 0 1707 1584" fill="none" xmlns="http://www.w3.org/2000/svg">
<path d="M1044.67 1.33346C970.667 9.20012 902.8 40.8001 841.467 96.0001C820.133 115.2 792 149.2 775.867 175.333C767.733 188.4 440.533 748.4 426.4 773.333C364.267 882.933 340.933 995.067 362.8 1079.33C371.733 1113.87 392.4 1146.4 417.333 1165.2C466.267 1202.13 528.667 1204 596.667 1170.8C629.867 1154.53 661.067 1131.87 693.2 1100.67C726.4 1068.4 754.933 1032.8 780.4 992C799.2 961.733 956.667 690.933 959.067 684.667C962.4 676 963.467 658.533 961.333 649.2C954.8 621.067 929.733 601.333 900.667 601.333C876.8 601.333 858 612.8 844.533 635.467C841.6 640.533 804.4 704 762 776.667C719.6 849.2 681.733 914 677.6 920.667C639.867 982.4 594 1030.13 547.867 1055.87C535.467 1062.8 519.067 1068.13 508 1068.93C498.533 1069.6 497.733 1069.47 493.733 1066.13C488.267 1061.6 484.667 1053.47 481.867 1039.87C478.533 1023.6 479.867 988 484.533 965.333C493.2 923.2 509.2 880.933 531.733 840.667C549.2 809.467 875.867 250.8 883.733 238.667C923.2 177.6 986.4 135.067 1050.4 126.533C1068.27 124.133 1096.4 125.733 1112.67 129.867C1129.33 134.267 1149.87 144.133 1163.73 154.667C1230.8 205.2 1246.93 313.467 1201.47 407.333C1193.33 424.267 702.933 1264.67 691.867 1280.67C630 1370.4 505.867 1403.47 406 1356.67C390.8 1349.6 303.733 1300 286 1288.27C258.533 1270.13 227.467 1234.8 212.133 1204.13C180.4 1140.8 180.133 1066.13 211.333 1003.87C215.867 995.067 319.733 816.933 585.733 362C631.2 284.267 670.533 216.133 673.2 210.667C677.333 202 678 199.2 678.4 188.4C679.067 174.133 677.6 167.067 671.467 155.333C661.2 135.6 639.467 122.667 616.667 122.667C599.467 122.8 586 128.533 573.333 141.333C565.733 148.933 559.6 158.8 521.2 224.667C497.2 265.733 395.6 439.733 295.333 611.333C195.067 782.933 110 928.667 106.267 935.333C86.2667 970.667 71.8667 1014.8 65.8667 1058.67C62.6667 1081.33 62.6667 1124 65.8667 1146.67C73.3333 1201.6 92.2667 1252.13 121.867 1296.53C136.667 1318.53 146.8 1330.93 165.867 1350C195.2 1379.33 209.333 1389.2 274.533 1426.67C357.2 1474.13 370.4 1480.27 412.533 1491.33C446.933 1500.4 460.267 1501.87 502.667 1501.87C543.733 1501.87 556.4 1500.53 589.333 1492.53C636.8 1480.8 689.867 1454.53 727.467 1424C753.067 1403.07 780 1373.6 798.267 1346C806.267 1334 1295.47 497.467 1307.07 476C1326.53 439.867 1341.87 393.067 1348.93 348C1351.87 328.667 1352.27 271.2 1349.6 252.667C1340.93 195.067 1321.87 147.6 1290.93 106.667C1281.33 94.0001 1259.47 71.3335 1247.33 61.3335C1210.67 31.3335 1166.13 11.4668 1117.33 3.33346C1102.4 0.800122 1060 -0.266545 1044.67 1.33346Z" fill="#808080"></path>
</svg>
